<svg height="455pt" viewBox="-138 0 455 455.69005" width="455pt" xmlns="http://www.w3.org/2000/svg"><path d="m50.675781 455.691406h79.058594c27.601563-.109375 49.9375-22.484375 50-50.089844l.328125-264c.003906-4.261718-1.183594-8.4375-3.4375-12.054687l-77.9375-124.835937c-1.824219-2.925782-5.027344-4.70703175-8.476562-4.710938-3.449219-.00390625-6.65625 1.773438-8.488282 4.695312l-77.925781 124.800782c-2.261719 3.605468-3.457031 7.777344-3.453125 12.03125l.332031 264.078125c.0625 27.601562 22.398438 49.976562 50 50.085937zm104.925781-321.855468-30.652343 13.078124-28.277344-24.050781c-3.722656-3.175781-9.199219-3.1875-12.9375-.03125l-28.273437 23.972657-30.648438-12.957032 30.21875-48.15625h70.351562zm-88.398437 29.113281 23-19.40625 23 19.414062v191.734375h-46zm66 191.742187v-189.628906l26.898437-11.65625-.304687 201.285156zm-86-189.628906v189.628906h-26.589844l-.316406-201.289062zm82.53125 270.628906h-79.058594c-16.582031-.117187-29.972656-13.578125-30-30.160156l-.039062-30.839844h139.132812l-.035156 30.839844c-.027344 16.582031-13.417969 30.042969-30 30.160156zm-39.53125-406.332031 22.691406 36.332031h-45.375zm0 0"/></svg>